<svg width="200" height="25" viewBox="0 0 200 25" fill="none" xmlns="http://www.w3.org/2000/svg">
<g clip-path="url(#clip0_5_45)">
<path d="M170.926 9.932V25.0146H175.951V14.9596H194.329V25.0146H199.354V9.932H170.926ZM175.377 5.0422H194.759C197.487 4.5601 199.426 2.21851 200 0.0146484H170.136C170.711 2.21851 172.721 4.49123 175.377 5.0422ZM155.635 25.0146C158.148 23.9816 159.512 22.191 160.086 20.1248H137.473V0.083519H132.376V25.0146H155.635V25.0146ZM94.6877 4.97333H112.635C115.362 4.21575 117.588 2.21851 118.162 0.083519H89.7343V14.8218H112.993V19.9871H94.7595C91.888 20.7447 89.4472 22.6042 88.2268 25.0146H118.019V9.932H94.7595L94.6877 4.97333ZM50.4666 5.0422H69.8492C72.5771 4.5601 74.5872 2.21851 75.0897 0.0146484H45.1543C45.7286 2.21851 47.7386 4.49123 50.4666 5.0422ZM50.4666 14.8907H69.8492C72.5771 14.4086 74.5872 12.067 75.0897 9.86313H45.1543C45.7286 12.067 47.7386 14.3397 50.4666 14.8907ZM50.4666 25.0146H69.8492C72.5771 24.5326 74.5872 22.191 75.0897 19.9871H45.1543C45.7286 22.191 47.7386 24.5326 50.4666 25.0146Z" fill="#5E5E5E"/>
<path d="M0 0.083519C0.5743 2.28738 2.58435 4.49123 5.24049 5.0422H13.4243L13.855 5.17994V24.9458H18.9519V5.17994L19.3826 5.0422H27.5664C30.2943 4.35349 32.2326 2.28738 32.8069 0.083519V0.0146484L0 0.083519Z" fill="#5E5E5E"/>
</g>
<defs>
<clipPath id="clip0_5_45">
<rect width="200" height="25" fill="white"/>
</clipPath>
</defs>
</svg>
